<?xml version="1.0" standalone="no"?>
<!DOCTYPE svg PUBLIC "-//W3C//DTD SVG 20010904//EN"
 "http://www.w3.org/TR/2001/REC-SVG-20010904/DTD/svg10.dtd">
<svg version="1.0" xmlns="http://www.w3.org/2000/svg"
 width="270.000000pt" height="270.000000pt" viewBox="0 0 270.000000 270.000000"
 preserveAspectRatio="xMidYMid meet">
<metadata>
Created by potrace 1.11, written by Peter Selinger 2001-2013
</metadata>
<g transform="translate(0.000000,270.000000) scale(0.100000,-0.100000)"
fill="#000000" stroke="none">
<path d="M689 2076 c-59 -21 -107 -64 -136 -124 l-28 -57 1 -280 c0 -268 1
-282 23 -326 50 -105 160 -160 272 -136 66 13 123 60 162 132 21 38 22 54 25
316 3 321 -2 344 -77 419 -67 66 -156 87 -242 56z"/>
<path d="M1737 2073 c-6 -10 -31 -77 -281 -763 -114 -311 -208 -572 -210 -580
-2 -8 -13 -39 -25 -68 l-21 -52 103 0 103 0 54 152 c29 84 62 177 72 206 l19
52 313 0 313 0 47 -137 c26 -76 51 -147 56 -158 5 -11 16 -41 26 -67 l17 -48
103 0 c57 0 104 3 104 8 0 4 -11 36 -24 72 -13 36 -88 241 -166 455 -78 215
-173 476 -211 580 -39 105 -72 197 -74 205 -2 8 -15 44 -28 80 l-25 65 -130 3
c-72 1 -133 -1 -135 -5z m162 -278 c18 -49 36 -99 41 -110 5 -11 25 -65 44
-120 19 -55 55 -158 81 -230 25 -71 47 -134 48 -140 1 -6 -91 -10 -250 -10
-139 0 -253 1 -253 3 0 1 20 57 44 125 24 67 65 181 91 252 79 220 118 325
120 323 1 -2 17 -43 34 -93z"/>
<path d="M225 1387 c-8 -4 -12 -13 -10 -20 2 -6 6 -31 9 -55 26 -208 208 -397
428 -446 l27 -6 3 -128 3 -127 83 -1 82 -2 1 32 c1 17 1 73 0 124 -2 103 -8
94 87 123 40 12 46 18 68 68 14 30 26 62 28 71 3 15 11 38 27 78 11 28 4 28
-29 -3 -28 -27 -104 -66 -161 -84 -86 -28 -247 -2 -326 51 -103 71 -172 181
-177 281 -1 21 -5 40 -10 43 -14 9 -118 10 -133 1z"/>
</g>
</svg>
