<?xml version="1.0" standalone="no"?>
<!DOCTYPE svg PUBLIC "-//W3C//DTD SVG 20010904//EN"
 "http://www.w3.org/TR/2001/REC-SVG-20010904/DTD/svg10.dtd">
<svg version="1.0" xmlns="http://www.w3.org/2000/svg"
 width="576.000000pt" height="576.000000pt" viewBox="0 0 576.000000 576.000000"
 preserveAspectRatio="xMidYMid meet">
<metadata>
Created by potrace 1.11, written by Peter Selinger 2001-2013
</metadata>
<g transform="translate(0.000000,576.000000) scale(0.100000,-0.100000)"
fill="#000000" stroke="none">
<path d="M2130 3718 c-70 -19 -140 -87 -175 -170 -20 -45 -21 -66 -20 -365 1
-309 1 -319 23 -368 103 -226 405 -222 505 6 25 55 25 56 23 375 -1 304 -2
321 -22 365 -27 57 -86 118 -139 144 -45 21 -141 28 -195 13z"/>
<path d="M3186 3338 c-76 -211 -167 -459 -201 -553 -35 -93 -108 -294 -163
-445 -55 -151 -103 -283 -107 -292 -7 -17 3 -18 112 -18 l118 0 34 97 c19 54
55 159 81 233 l46 135 361 3 c337 2 361 1 368 -15 6 -16 100 -281 143 -405
l17 -48 122 0 122 0 -9 28 c-5 15 -38 108 -75 207 -36 99 -77 209 -90 245 -12
36 -78 216 -145 400 -67 184 -140 382 -161 440 -21 58 -56 157 -79 220 -23 63
-44 123 -47 133 -5 15 -21 17 -157 17 l-152 0 -138 -382z m304 118 c0 -6 11
-40 24 -76 37 -98 246 -682 246 -686 0 -2 -130 -4 -290 -4 -159 0 -290 2 -290
5 0 2 52 150 116 327 64 178 128 358 142 401 23 68 28 76 39 61 7 -10 13 -22
13 -28z"/>
<path d="M1585 2920 c-16 -27 18 -177 58 -255 12 -22 21 -42 22 -45 0 -11 71
-96 110 -133 81 -78 204 -145 297 -162 l37 -7 3 -147 3 -146 75 -2 c129 -4
120 -15 120 150 l0 143 69 17 c38 10 75 24 80 31 12 15 101 249 96 254 -1 2
-18 -11 -36 -28 -40 -36 -135 -85 -198 -100 -62 -16 -174 -14 -238 5 -183 53
-305 192 -329 375 -9 60 -8 60 -88 60 -41 0 -78 -5 -81 -10z"/>
</g>
</svg>
