<?xml version="1.0" encoding="UTF-8" standalone="no"?>
<!-- Created with Inkscape (http://www.inkscape.org/) -->

<svg
   xmlns:dc="http://purl.org/dc/elements/1.1/"
   xmlns:cc="http://creativecommons.org/ns#"
   xmlns:rdf="http://www.w3.org/1999/02/22-rdf-syntax-ns#"
   xmlns:svg="http://www.w3.org/2000/svg"
   xmlns="http://www.w3.org/2000/svg"
   xmlns:sodipodi="http://sodipodi.sourceforge.net/DTD/sodipodi-0.dtd"
   xmlns:inkscape="http://www.inkscape.org/namespaces/inkscape"
   width="260"
   height="80"
   viewBox="0 0 68.791667 21.166667"
   version="1.1"
   id="svg8"
   inkscape:version="0.92.3 (2405546, 2018-03-11)"
   sodipodi:docname="logo.svg">
  <defs
     id="defs2" />
  <sodipodi:namedview
     id="base"
     pagecolor="#ffffff"
     bordercolor="#666666"
     borderopacity="1.0"
     inkscape:pageopacity="0.0"
     inkscape:pageshadow="2"
     inkscape:zoom="0.98994949"
     inkscape:cx="101.42688"
     inkscape:cy="-161.80854"
     inkscape:document-units="px"
     inkscape:current-layer="layer1"
     showgrid="false"
     units="px"
     inkscape:window-width="1366"
     inkscape:window-height="705"
     inkscape:window-x="-8"
     inkscape:window-y="-8"
     inkscape:window-maximized="1" />
  <metadata
     id="metadata5">
    <rdf:RDF>
      <cc:Work
         rdf:about="">
        <dc:format>image/svg+xml</dc:format>
        <dc:type
           rdf:resource="http://purl.org/dc/dcmitype/StillImage" />
        <dc:title></dc:title>
      </cc:Work>
    </rdf:RDF>
  </metadata>
  <g
     inkscape:label="Livello 1"
     inkscape:groupmode="layer"
     id="layer1"
     transform="translate(0,-275.83332)">
    <g
       id="g927"
       transform="translate(-0.66817381)">
      <path
         id="path815"
         d="m 8.4051805,277.23789 a 1.8357956,1.8357956 0 0 0 -1.8360636,1.83555 v 0.91777 a 0.91789784,0.91789784 0 0 0 0.9177734,0.91829 v 1.56631 c 0.028201,-0.49781 0.1401062,-0.952 0.3467489,-1.35702 0.2393006,-0.46903 0.5885411,-0.83786 1.047998,-1.10588 0.4594571,-0.26801 1.0053561,-0.40204 1.6371098,-0.40204 0.574321,0 1.085938,0.11985 1.535823,0.35915 0.437971,0.22811 0.777606,0.54146 1.024227,0.93483 a 0.91789784,0.91789784 0 0 0 0.833541,-0.91364 v -0.91777 a 1.8357956,1.8357956 0 0 0 -1.835547,-1.83555 z m 2.1135665,3.53622 c -0.5647496,0 -1.0098706,0.17707 -1.3353195,0.53123 -0.3158765,0.34459 -0.4738727,0.81368 -0.4738727,1.40715 v 4.40748 c 0,0.62218 0.1672741,1.12504 0.5022948,1.50792 0.3445928,0.37331 0.8278594,0.55966 1.4500404,0.55966 0.373309,0 0.718169,-0.0905 1.034046,-0.27234 0.315877,-0.18187 0.564856,-0.42646 0.746724,-0.73277 0.191441,-0.3063 0.286804,-0.64085 0.286804,-1.00459 0,-0.35416 -0.100261,-0.68485 -0.301273,-0.99115 -0.19144,-0.30631 -0.454595,-0.55039 -0.789616,-0.73226 -0.325449,-0.18187 -0.675206,-0.27233 -1.048515,-0.27233 H 9.9730434 v -1.12035 h 0.4449346 c 0.574321,0 1.024339,-0.1531 1.349788,-0.4594 0.335021,-0.31588 0.502295,-0.72723 0.502295,-1.23455 0,-0.46903 -0.172172,-0.85204 -0.516764,-1.14877 -0.335021,-0.29673 -0.746377,-0.44493 -1.23455,-0.44493 z m -3.037541,1.80609 -5.0425864,8.76536 c -0.2937458,0.43143 -0.4588868,0.9458 -0.4588868,1.49654 a 2.7536934,2.7536934 0 0 0 2.7538371,2.75333 H 15.748402 a 2.7536934,2.7536934 0 0 0 2.75332,-2.75333 c 0,-0.55074 -0.165149,-1.06511 -0.458887,-1.49654 l -4.668449,-8.11424 c -0.183235,0.57131 -0.562085,1.00846 -1.147216,1.30431 v 0.0574 c 0.497745,0.20101 0.909101,0.5268 1.23455,0.97668 0.33502,0.44031 0.502811,0.97152 0.502811,1.5937 0,0.60304 -0.143821,1.14842 -0.430981,1.63659 -0.287161,0.47861 -0.679444,0.85671 -1.177189,1.1343 -0.488174,0.27759 -1.038453,0.41651 -1.651063,0.41651 -0.421168,0 -0.809071,-0.091 -1.1632359,-0.27285 -0.3445929,-0.18187 -0.6219228,-0.43574 -0.8325073,-0.76119 h -0.057361 l 0.057361,1.01957 v 2.88613 H 7.474488 v -10.50995 c 0,-0.0453 0.00533,-0.0878 0.00672,-0.13229 z"
         style="fill:#1a73e8;fill-opacity:1;stroke-width:0.91789788"
         inkscape:connector-curvature="0" />
      <g
         transform="translate(-4.0751998,2.6458364)"
         style="fill:#1a73e8;fill-opacity:1"
         id="g896">
        <path
           inkscape:connector-curvature="0"
           id="path866"
           style="font-style:normal;font-variant:normal;font-weight:normal;font-stretch:normal;font-size:medium;line-height:1.25;font-family:'Google Sans';-inkscape-font-specification:'Google Sans';letter-spacing:0px;word-spacing:0px;fill:#1a73e8;fill-opacity:1;stroke:none;stroke-width:0.35895076"
           d="m 20.765641,282.52167 h 4.551496 v 1.00506 h -4.551496 z" />
        <path
           inkscape:connector-curvature="0"
           id="path868"
           style="font-style:normal;font-variant:normal;font-weight:normal;font-stretch:normal;font-size:medium;line-height:1.25;font-family:'Google Sans';-inkscape-font-specification:'Google Sans';letter-spacing:0px;word-spacing:0px;fill:#1a73e8;fill-opacity:1;stroke:none;stroke-width:0.35895076"
           d="m 27.361811,277.19484 h 1.766038 l 3.273631,8.42816 h 0.05743 l 3.273632,-8.42816 h 1.766037 v 10.28035 h -1.206074 v -6.53291 l 0.05743,-1.95269 h -0.05743 l -3.35978,8.4856 h -1.005062 l -3.35978,-8.4856 h -0.05743 l 0.05743,1.95269 v 6.53291 h -1.206074 z" />
        <path
           inkscape:connector-curvature="0"
           id="path870"
           style="font-style:normal;font-variant:normal;font-weight:normal;font-stretch:normal;font-size:medium;line-height:1.25;font-family:'Google Sans';-inkscape-font-specification:'Google Sans';letter-spacing:0px;word-spacing:0px;fill:#1a73e8;fill-opacity:1;stroke:none;stroke-width:0.35895076"
           d="m 41.656802,287.70492 q -0.804049,0 -1.435803,-0.31588 -0.631753,-0.31588 -0.976346,-0.86148 -0.344593,-0.55996 -0.344593,-1.26351 0,-1.163 0.87584,-1.80911 0.87584,-0.66047 2.211137,-0.66047 0.66047,0 1.220433,0.14358 0.574321,0.14358 0.87584,0.33024 v -0.4451 q 0,-0.81841 -0.574321,-1.30658 -0.574322,-0.50254 -1.450162,-0.50254 -0.617395,0 -1.134284,0.27281 -0.516889,0.25844 -0.818408,0.73226 l -0.918914,-0.68919 q 0.430741,-0.66047 1.177359,-1.03378 0.760975,-0.37331 1.679889,-0.37331 1.493236,0 2.34036,0.7897 0.861482,0.77533 0.861482,2.12498 v 4.63765 H 44.08331 v -1.04814 h -0.05743 q -0.315877,0.53125 -0.94763,0.90456 -0.631754,0.37331 -1.421446,0.37331 z m 0.114865,-1.07685 q 0.617395,0 1.148642,-0.31588 0.531247,-0.31588 0.847124,-0.84713 0.315877,-0.53124 0.315877,-1.163 -0.344593,-0.22972 -0.847124,-0.3733 -0.502531,-0.14359 -1.062494,-0.14359 -1.005063,0 -1.521952,0.41639 -0.502531,0.41638 -0.502531,1.07685 0,0.60304 0.459457,0.97635 0.459457,0.37331 1.163001,0.37331 z" />
        <path
           inkscape:connector-curvature="0"
           id="path872"
           style="font-style:normal;font-variant:normal;font-weight:normal;font-stretch:normal;font-size:medium;line-height:1.25;font-family:'Google Sans';-inkscape-font-specification:'Google Sans';letter-spacing:0px;word-spacing:0px;fill:#1a73e8;fill-opacity:1;stroke:none;stroke-width:0.35895076"
           d="m 46.944148,280.15259 h 1.163 v 1.07686 h 0.05743 q 0.301518,-0.54561 0.961988,-0.91892 0.660469,-0.38767 1.407087,-0.38767 1.320939,0 2.010124,0.77534 0.703544,0.76097 0.703544,2.08191 v 4.69508 h -1.220433 v -4.50842 q 0,-1.01942 -0.488173,-1.47888 -0.488173,-0.45946 -1.335297,-0.45946 -0.588679,0 -1.062494,0.33024 -0.459457,0.33023 -0.717902,0.87584 -0.258444,0.53124 -0.258444,1.11992 v 4.12076 h -1.220433 z" />
        <path
           inkscape:connector-curvature="0"
           id="path874"
           style="font-style:normal;font-variant:normal;font-weight:normal;font-stretch:normal;font-size:medium;line-height:1.25;font-family:'Google Sans';-inkscape-font-specification:'Google Sans';letter-spacing:0px;word-spacing:0px;fill:#1a73e8;fill-opacity:1;stroke:none;stroke-width:0.35895076"
           d="m 55.710401,278.80294 q -0.358951,0 -0.617396,-0.25845 -0.258444,-0.25844 -0.258444,-0.61739 0,-0.35895 0.258444,-0.60304 0.258445,-0.25844 0.617396,-0.25844 0.358951,0 0.617395,0.25844 0.258445,0.24409 0.258445,0.60304 0,0.35895 -0.258445,0.61739 -0.244086,0.25845 -0.617395,0.25845 z m -0.603038,1.34965 h 1.206075 v 7.3226 h -1.206075 z" />
        <path
           inkscape:connector-curvature="0"
           id="path876"
           style="font-style:normal;font-variant:normal;font-weight:normal;font-stretch:normal;font-size:medium;line-height:1.25;font-family:'Google Sans';-inkscape-font-specification:'Google Sans';letter-spacing:0px;word-spacing:0px;fill:#1a73e8;fill-opacity:1;stroke:none;stroke-width:0.35895076"
           d="m 60.50172,287.70492 q -0.80405,0 -1.435803,-0.31588 -0.631754,-0.31588 -0.976347,-0.86148 -0.344592,-0.55996 -0.344592,-1.26351 0,-1.163 0.87584,-1.80911 0.875839,-0.66047 2.211136,-0.66047 0.66047,0 1.220433,0.14358 0.574322,0.14358 0.87584,0.33024 v -0.4451 q 0,-0.81841 -0.574321,-1.30658 -0.574321,-0.50254 -1.450161,-0.50254 -0.617396,0 -1.134285,0.27281 -0.516889,0.25844 -0.818408,0.73226 l -0.918914,-0.68919 q 0.430741,-0.66047 1.177359,-1.03378 0.760976,-0.37331 1.67989,-0.37331 1.493235,0 2.340359,0.7897 0.861482,0.77533 0.861482,2.12498 v 4.63765 h -1.163001 v -1.04814 h -0.05743 q -0.315877,0.53125 -0.94763,0.90456 -0.631753,0.37331 -1.421445,0.37331 z m 0.114864,-1.07685 q 0.617395,0 1.148643,-0.31588 0.531247,-0.31588 0.847123,-0.84713 0.315877,-0.53124 0.315877,-1.163 -0.344593,-0.22972 -0.847124,-0.3733 -0.502531,-0.14359 -1.062494,-0.14359 -1.005062,0 -1.521952,0.41639 -0.502531,0.41638 -0.502531,1.07685 0,0.60304 0.459457,0.97635 0.459457,0.37331 1.163001,0.37331 z" />
        <path
           inkscape:connector-curvature="0"
           id="path878"
           style="font-style:normal;font-variant:normal;font-weight:normal;font-stretch:normal;font-size:medium;line-height:1.25;font-family:'Google Sans';-inkscape-font-specification:'Google Sans';letter-spacing:0px;word-spacing:0px;fill:#1a73e8;fill-opacity:1;stroke:none;stroke-width:0.35895076"
           d="m 69.021641,287.70492 q -1.062494,0 -1.909618,-0.50253 -0.847124,-0.51689 -1.320939,-1.39273 -0.473815,-0.8902 -0.473815,-1.99577 0,-1.10557 0.473815,-1.99577 0.473815,-0.89019 1.320939,-1.39272 0.847124,-0.50254 1.909618,-0.50254 1.191717,0 1.995767,0.55997 0.818408,0.5456 1.163,1.46452 l -1.105568,0.45945 q -0.272803,-0.67482 -0.818408,-1.01942 -0.531247,-0.35895 -1.292223,-0.35895 -0.646111,0 -1.206075,0.35895 -0.559963,0.3446 -0.904556,0.97635 -0.330234,0.63175 -0.330234,1.45016 0,0.81841 0.330234,1.45016 0.344593,0.63176 0.904556,0.99071 0.559964,0.34459 1.206075,0.34459 0.775334,0 1.335297,-0.35895 0.559963,-0.35895 0.832766,-1.01942 l 1.09121,0.45946 q -0.373308,0.90455 -1.206074,1.46451 -0.818408,0.55997 -1.995767,0.55997 z" />
      </g>
    </g>
  </g>
</svg>
